<?xml version="1.0" encoding="UTF-8"?>
<!DOCTYPE svg PUBLIC "-//W3C//DTD SVG 1.1//EN" "http://www.w3.org/Graphics/SVG/1.1/DTD/svg11.dtd">
<!-- Creator: CorelDRAW X8 -->
<svg xmlns="http://www.w3.org/2000/svg" xml:space="preserve" width="148mm" height="210mm" version="1.1" style="shape-rendering:geometricPrecision; text-rendering:geometricPrecision; image-rendering:optimizeQuality; fill-rule:evenodd; clip-rule:evenodd"
viewBox="0 0 14800 21000"
 xmlns:xlink="http://www.w3.org/1999/xlink">
 <defs>
  <style type="text/css">
   <![CDATA[
    .str0 {stroke:#373435;stroke-width:7.62}
    .fil0 {fill:#373435}
   ]]>
  </style>
 </defs>
 <g id="Layer_x0020_1">
  <metadata id="CorelCorpID_0Corel-Layer"/>
  <path class="fil0 str0" d="M3680 10208c560,-258 559,981 -311,315 -873,668 -872,-581 -307,-313 83,-153 192,-245 310,-245 118,0 226,92 308,243zm-1652 735l0 1074 655 0 0 221 -920 0 0 -1295 265 0zm3340 -35l331 967 319 -967 281 0 -465 1306 -285 0 -467 -1306 286 0zm-709 221l0 1085 -264 0 0 -1085 -387 0 0 -221 1036 0 0 221 -385 0zm2740 -221l0 221 -703 0 0 290 653 0 0 220 -653 0 0 354 728 0 0 221 -992 0 0 -1306 967 0zm1043 0l244 0 0 1306 -264 0 -529 -859 0 859 -244 0 0 -1306 255 0 538 875 0 -875zm1841 0l265 0 0 708c0,112 3,185 9,218 12,53 38,97 80,129 42,32 100,49 173,49 74,0 129,-16 167,-46 38,-31 60,-68 68,-113 8,-45 12,-119 12,-222l0 -723 264 0 0 687c0,157 -7,268 -21,332 -15,65 -41,120 -79,164 -38,45 -89,80 -153,107 -64,26 -147,40 -250,40 -125,0 -219,-15 -283,-43 -64,-29 -115,-67 -152,-113 -38,-46 -62,-94 -74,-145 -17,-75 -26,-185 -26,-332l0 -697zm1586 0l0 579 533 -579 354 0 -493 509 519 797 -342 0 -359 -613 -212 218 0 395 -265 0 0 -1306 265 0zm-2068 824l256 79c-40,144 -105,250 -196,320 -91,70 -207,105 -347,105 -174,0 -316,-59 -428,-178 -112,-119 -168,-281 -168,-486 0,-218 57,-387 169,-507 112,-121 260,-181 443,-181 160,0 289,48 389,142 60,56 104,136 134,241l-261 62c-15,-67 -48,-121 -97,-160 -49,-39 -108,-59 -178,-59 -97,0 -176,35 -236,105 -61,69 -91,181 -91,337 0,165 30,283 89,353 60,70 137,105 232,105 70,0 131,-22 181,-67 51,-45 87,-115 109,-211zm-596 -1205l202 0 96 133 103 -133 201 0 -184 262 -232 0 -186 -262zm-6053 -701c47,0 85,38 85,85 0,48 -38,86 -85,86 -47,0 -86,-38 -86,-86 0,-47 39,-85 86,-85zm444 5c47,0 86,39 86,86 0,47 -39,86 -86,86 -47,0 -86,-39 -86,-86 0,-47 39,-86 86,-86zm213 1191c10,71 16,145 18,221l-943 0c3,-88 6,-141 18,-221l907 0zm-916 492l925 0c-8,78 -20,152 -35,221l-855 0c-15,-69 -27,-143 -35,-221zm763 566c-82,143 -186,229 -300,229 -115,0 -219,-86 -301,-229l601 0zm-287 -1588c443,317 606,73 554,-110 -44,-155 -241,-259 -555,72 -687,-724 -816,623 1,38z"/>
 </g>
</svg>
